<svg t="1683280959896" class="icon" viewBox="0 0 1024 1024" version="1.1" xmlns="http://www.w3.org/2000/svg"
  p-id="10803" width="200" height="200">
  <path
    d="M690.89622662 554.79834332c-16.59610288 0-32.70408509 2.92872403-47.59176562 8.05399109l-33.19220574-44.4189812-56.62199805-76.14682502-38.07341248-51.00861028-82.98051442-111.29151345-79.075549-105.92218601-48.8120673 36.60905046 172.7947182 231.61325928-91.03450548 122.03016824c-16.1079822-6.10150842-33.68032643-9.51835312-51.74079135-9.51835311-80.2958507 0-145.94808119 65.40817018-145.94808118 145.94808119s65.40817018 145.94808119 145.94808118 145.9480812 145.94808119-65.40817018 145.94808121-145.9480812c0-40.26995552-16.35204253-76.63494566-42.71055888-102.99346196l77.85524735-104.21376368 75.65870429 101.28503963c-28.31099903 26.60257667-45.88334324 64.18786848-45.88334326 105.92218601 0 80.2958507 65.40817018 145.94808119 145.94808121 145.9480812s145.94808119-65.40817018 145.9480812-145.9480812-65.89629086-145.94808119-146.43620188-145.94808119z m-356.32809124 230.63701795c-46.85958459 0-84.93299709-38.07341248-84.93299709-84.93299706s38.07341248-84.93299709 84.93299709-84.9329971 84.93299709 38.07341248 84.9329971 84.9329971-38.31747281 84.93299709-84.9329971 84.93299706z m356.32809124 0c-46.85958459 0-84.93299709-38.07341248-84.93299707-84.93299706s38.07341248-84.93299709 84.93299707-84.9329971 84.93299709 38.07341248 84.93299709 84.9329971-38.07341248 84.93299709-84.93299709 84.93299706z"
    fill="" p-id="10804"></path>
  <path d="M720.915648 217.995079l-48.81206726-36.60905045-135.45348678 181.5808903 38.31747286 50.52048966z" fill=""
    p-id="10805"></path>
</svg>